<svg width="394" height="86" fill="none" xmlns="http://www.w3.org/2000/svg"><g clip-path="url(#clip0_98_4)" fill="#4FFCC6"><path d="M94.549 66.704c-2.359 2.602-6.708 5.348-12.973 5.348-8.55 0-12.382-4.697-12.382-11.49V34.327h11.94v21.391c0 4.409 2.359 5.926 6.192 5.926 3.39 0 5.749-1.806 7.149-3.613V34.328h11.94v36.785h-11.94v-4.409h.074zm44.15-16.839c0-4.48-2.433-6.07-6.118-6.07-3.538 0-5.897 1.879-7.297 3.613v23.777H113.27V34.328h11.94v4.48c2.285-2.601 6.708-5.42 12.973-5.42 8.55 0 12.456 4.842 12.456 11.636V71.04h-11.94V49.865zm44.076 0c0-4.48-2.433-6.07-6.118-6.07-3.538 0-5.896 1.879-7.297 3.613v23.777h-11.94V34.328h11.94v4.48c2.285-2.601 6.708-5.42 12.973-5.42 8.549 0 12.456 4.842 12.456 11.636V71.04h-11.941V49.865h-.073zm36.189-16.405c11.13 0 19.164 8.022 19.164 20.453v2.529h-26.682c.663 3.397 3.98 6.576 9.582 6.576 3.317 0 7.076-1.3 9.139-3.107l5.012 7.299c-3.759 3.252-9.95 4.842-15.699 4.842-11.572 0-20.49-7.371-20.49-19.368 0-10.623 8.255-19.224 19.974-19.224zm-7.665 15.322h15.478c-.295-2.602-2.285-6.288-7.739-6.288-5.233 0-7.297 3.614-7.739 6.288zm30.809-14.454h11.94v4.625c2.506-2.963 7.223-5.565 11.72-5.565v11.346c-.664-.216-1.696-.36-2.949-.36-3.095 0-7.223 1.3-8.771 3.396v23.27h-11.94V34.328zm26.829 11.418c0-15.61 11.719-26.233 26.387-26.233 9.36 0 15.773 4.336 19.9 10.045l-5.454 2.963c-2.948-4.264-8.329-7.372-14.446-7.372-11.13 0-19.753 8.528-19.753 20.67 0 11.996 8.623 20.668 19.753 20.668 6.117 0 11.498-3.035 14.446-7.371l5.528 2.963c-4.349 5.782-10.54 10.045-19.974 10.045-14.668-.072-26.387-10.768-26.387-26.378zm51.373-21.175c0-2.096 1.769-3.902 3.906-3.902 2.138 0 3.981 1.734 3.981 3.902 0 2.096-1.769 3.83-3.981 3.83-2.137 0-3.906-1.662-3.906-3.83zm1.032 9.757h5.823v36.784h-5.823V34.328zm16.657 29.124V39.387h-6.191v-5.06h6.191V24.283h5.823v10.046h7.592v5.059h-7.592v22.837c0 2.746 1.253 4.697 3.833 4.697 1.621 0 3.169-.65 3.98-1.518l1.695 4.264c-1.474 1.373-3.538 2.385-7.002 2.385-5.528 0-8.329-3.18-8.329-8.6zm21.744 17.489c2.579 0 4.275-.867 5.601-3.902l2.506-5.565-15.699-37.146h6.265l12.53 30.136 12.456-30.136h6.339l-18.795 44.228c-2.285 5.348-6.044 7.372-11.056 7.444-1.253 0-3.169-.217-4.275-.506l.958-5.203c.885.433 2.285.65 3.17.65zM55.042 35.267c3.907-3.758 6.265-8.961 6.265-14.67C61.381 9.25 51.947 0 40.301 0h-3.759v11.852h3.76c4.938 0 8.918 3.903 8.918 8.745 0 4.842-3.98 8.744-8.919 8.744h-3.317v-2.746c-.958.434-1.99.723-3.095.723-1.917 0-3.686-.723-5.012-2.024l-.442-.434 1.474-1.445.442.434c1.769 1.734 4.717 1.734 6.633.289v-5.565H24.897v10.768h-3.39C9.933 29.341.5 38.591.5 50.011h12.088c0-4.843 3.98-8.745 8.918-8.745h3.39v21.102c0 3.83-3.169 6.938-7.075 6.938h-3.39v11.852h3.39c10.54 0 19.163-8.456 19.163-18.79V41.266h3.317c4.938 0 8.919 3.902 8.919 8.744v21.175h12.087V50.01c.074-5.781-2.358-10.985-6.265-14.743zm328.876 31.22h-1.621v-1.011h4.422v1.011h-1.621v4.481h-1.18v-4.48zm8.403.506l-1.548 3.903h-.516l-1.548-3.903v3.903h-1.253v-5.493h1.695l1.327 3.397 1.327-3.397h1.695v5.493h-1.179v-3.903z"/></g><defs><clipPath id="clip0_98_4"><path fill="#fff" transform="translate(.5)" d="M0 0h393v86H0z"/></clipPath></defs></svg>